<svg width="187" height="187" viewBox="0 0 187 187" fill="none" xmlns="http://www.w3.org/2000/svg">
<path d="M93.5 23.375V38.9583H38.9584V109.083H148.042V93.5H163.625V155.833H155.833V163.625C155.833 167.928 152.345 171.417 148.042 171.417H140.25C135.947 171.417 132.458 167.928 132.458 163.625V155.833H54.5417V163.625C54.5417 167.928 51.0532 171.417 46.75 171.417H38.9584C34.6552 171.417 31.1667 167.928 31.1667 163.625V155.833H23.375V93.5H15.5834V62.3333H23.375V38.9583C23.375 30.3519 30.3519 23.375 38.9584 23.375H93.5ZM70.125 124.667H38.9584V140.25H70.125V124.667ZM148.042 124.667H116.875V140.25H148.042V124.667Z" fill="#880015"/>
<g clip-path="url(#clip0_37_796)">
<path d="M169.17 81.2855H168.825V79.4323H169.17C170.319 79.4323 171.424 79.0885 172.364 78.439L173.417 79.9632C172.166 80.8287 170.698 81.2855 169.17 81.2855ZM164.522 81.2855H160.218V79.4323H164.522V81.2855ZM155.915 81.2855H151.611V79.4323H155.915V81.2855ZM147.309 81.2855H143.006V79.4323H147.31L147.309 81.2855ZM138.703 81.2855H134.399V79.4323H138.703V81.2855ZM130.096 81.2855H125.793V79.4323H130.096V81.2855ZM176.292 76.09L174.528 75.5257C174.704 74.9734 174.794 74.3971 174.794 73.8096C174.794 73.1536 174.682 72.5096 174.461 71.8971L176.203 71.267C176.498 72.0824 176.647 72.9386 176.647 73.8096C176.646 74.588 176.527 75.3561 176.292 76.09ZM172.19 69.0654C171.29 68.4909 170.245 68.187 169.17 68.187H168.583V66.3337H169.17C170.599 66.3337 171.988 66.7387 173.187 67.504L172.19 69.0654ZM164.28 68.186H159.977V66.3328H164.28V68.186ZM155.673 68.186H151.589C151.504 68.186 151.419 68.1851 151.337 68.1814L151.406 66.33L151.589 66.3328H155.673V68.186ZM146.829 66.4755C145.56 65.4266 144.661 63.969 144.297 62.3706L146.105 61.9601C146.378 63.161 147.054 64.2572 148.009 65.0476L146.829 66.4755ZM146.482 58.3519L144.802 57.5736C145.491 56.0845 146.673 54.8447 148.128 54.0821L148.988 55.7231C147.891 56.2976 147.001 57.2307 146.482 58.3519ZM157.042 55.0875H152.738V53.2343H157.042V55.0875Z" fill="#880015"/>
<path d="M117.25 31.6295C106.455 31.6295 97.7039 40.3794 97.7039 51.1744C97.7039 55.9937 99.4561 60.3979 102.347 63.806L117.249 81.3569L132.151 63.806C135.042 60.3979 136.794 55.9937 136.794 51.1744C136.795 40.3794 128.044 31.6295 117.25 31.6295ZM117.25 58.5401C112.81 58.5401 109.211 54.9411 109.211 50.5017C109.211 46.0623 112.81 42.4634 117.25 42.4634C121.689 42.4634 125.288 46.0623 125.288 50.5017C125.287 54.9411 121.689 58.5401 117.25 58.5401Z" fill="#F8C107"/>
<path d="M165.881 16.5776C157.528 16.5776 150.756 23.3492 150.756 31.7026C150.756 35.4322 152.112 38.8403 154.349 41.4774L165.881 55.0588L177.413 41.4774C179.65 38.8403 181.006 35.4322 181.006 31.7026C181.006 23.3492 174.234 16.5776 165.881 16.5776ZM165.881 37.4022C162.446 37.4022 159.661 34.6168 159.661 31.1819C159.661 27.7469 162.445 24.9615 165.881 24.9615C169.316 24.9615 172.101 27.7469 172.101 31.1819C172.101 34.6177 169.317 37.4022 165.881 37.4022Z" fill="#F8C107"/>
</g>
<defs>
<clipPath id="clip0_37_796">
<rect width="84.4171" height="84.4171" fill="white" transform="translate(97.24 5.34283)"/>
</clipPath>
</defs>
</svg>
