<svg width="181" height="181" viewBox="0 0 181 181" fill="none" xmlns="http://www.w3.org/2000/svg">
<path d="M90.3986 0.994507C41.0217 0.994507 0.994507 41.0217 0.994507 90.3986C0.994507 139.775 41.0217 179.803 90.3986 179.803C139.775 179.803 179.803 139.775 179.803 90.3986C179.803 41.0217 139.775 0.994507 90.3986 0.994507Z" fill="#F9C720"/>
<path d="M90.5 36.1577V46.7301H53.4965V94.3061H127.503V83.7337H138.076V126.023H132.79V131.31C132.79 134.229 130.423 136.596 127.503 136.596H122.217C119.298 136.596 116.931 134.229 116.931 131.31V126.023H64.0689V131.31C64.0689 134.229 61.7021 136.596 58.7827 136.596H53.4965C50.577 136.596 48.2102 134.229 48.2102 131.31V126.023H42.924V83.7337H37.6378V62.5888H42.924V46.7301C42.924 40.8912 47.6575 36.1577 53.4965 36.1577H90.5ZM74.6413 104.879H53.4965V115.451H74.6413V104.879ZM127.503 104.879H106.359V115.451H127.503V104.879Z" fill="#880015"/>
<g clip-path="url(#clip0_37_803)">
<path d="M141.838 75.4468H141.604V74.1895H141.838C142.617 74.1895 143.367 73.9562 144.005 73.5155L144.719 74.5497C143.871 75.1368 142.874 75.4468 141.838 75.4468ZM138.684 75.4468H135.764V74.1895H138.684V75.4468ZM132.845 75.4468H129.925V74.1895H132.845V75.4468ZM127.006 75.4468H124.087V74.1895H127.007L127.006 75.4468ZM121.168 75.4468H118.248V74.1895H121.168V75.4468ZM115.329 75.4468H112.409V74.1895H115.329V75.4468ZM146.67 71.9219L145.473 71.539C145.593 71.1644 145.654 70.7733 145.654 70.3748C145.654 69.9297 145.578 69.4928 145.427 69.0772L146.61 68.6498C146.81 69.203 146.911 69.7838 146.911 70.3748C146.91 70.9029 146.829 71.424 146.67 71.9219ZM143.887 67.1561C143.276 66.7663 142.568 66.5601 141.838 66.5601H141.44V65.3028H141.838C142.808 65.3028 143.75 65.5775 144.563 66.0968L143.887 67.1561ZM138.52 66.5595H135.601V65.3022H138.52V66.5595ZM132.681 66.5595H129.91C129.852 66.5595 129.795 66.5589 129.739 66.5563L129.786 65.3003L129.91 65.3022H132.681V66.5595ZM126.681 65.399C125.82 64.6874 125.21 63.6985 124.963 62.6141L126.19 62.3356C126.375 63.1503 126.834 63.894 127.482 64.4302L126.681 65.399ZM126.446 59.8876L125.305 59.3595C125.773 58.3493 126.575 57.5081 127.562 56.9907L128.146 58.1041C127.401 58.4939 126.798 59.1269 126.446 59.8876ZM133.61 57.6728H130.69V56.4155H133.61V57.6728Z" fill="#880015"/>
<path d="M106.613 41.7578C99.2891 41.7578 93.3521 47.6942 93.3521 55.018C93.3521 58.2876 94.5409 61.2756 96.5023 63.5878L106.612 75.4951L116.722 63.5878C118.684 61.2756 119.872 58.2876 119.872 55.018C119.873 47.6942 113.936 41.7578 106.613 41.7578ZM106.613 60.0152C103.601 60.0152 101.159 57.5735 101.159 54.5616C101.159 51.5497 103.601 49.108 106.613 49.108C109.625 49.108 112.067 51.5497 112.067 54.5616C112.066 57.5735 109.625 60.0152 106.613 60.0152Z" fill="#880015"/>
<path d="M139.607 31.546C133.939 31.546 129.345 36.1402 129.345 41.8075C129.345 44.3379 130.265 46.6501 131.783 48.4392L139.607 57.6534L147.43 48.4392C148.948 46.6501 149.868 44.3379 149.868 41.8075C149.868 36.1402 145.274 31.546 139.607 31.546ZM139.607 45.6744C137.276 45.6744 135.386 43.7847 135.386 41.4542C135.386 39.1238 137.275 37.2341 139.607 37.2341C141.937 37.2341 143.827 39.1238 143.827 41.4542C143.827 43.7853 141.938 45.6744 139.607 45.6744Z" fill="#880015"/>
</g>
<defs>
<clipPath id="clip0_37_803">
<rect width="57.2724" height="57.2724" fill="white" transform="translate(93.0374 23.9239)"/>
</clipPath>
</defs>
</svg>
